PathFileType	4	(X/Y/Z)	S:\OneDrive - The University of Tokyo\ìåëÂéˆã∆\ÉoÉCÉÅÉJ\ë™íË\hirabayashi_2\Trimmed\Trimmed_Trimmed_ShSs3-Bar.trc
DataRate	CameraRate	NumFrames	NumMarkers	Units	OrigDataRate	OrigDataStartFrame	OrigNumFrames
200.00	200.00	      24	12	mm	200.00	1	      1718
Frame#	Time	BarR0			BarR50			BarR100			BarR130			BarR180			BarR230			BarL0			BarL50			BarL100			BarL130			BarL180			BarL230			
		X1	Y1	Z1	X2	Y2	Z2	X3	Y3	Z3	X4	Y4	Z4	X5	Y5	Z5	X6	Y6	Z6	X7	Y7	Z7	X8	Y8	Z8	X9	Y9	Z9	X10	Y10	Z10	X11	Y11	Z11	X12	Y12	Z12	

1	0.000	-575.15765	2754.30127	1663.98901	-601.40607	2304.74146	1657.80872	-634.12231	1850.85535	1654.70190	-658.30640	1348.62695	1654.50708	-685.49237	901.88892	1658.60449	-711.84149	454.24966	1663.76074	-1115.60596	2807.05127	1664.26611	-1144.46716	2355.48193	1662.19580	-1176.32007	1905.45422	1659.57629	-1203.97253	1403.86060	1659.25708	-1226.53394	952.78558	1662.32385	-1245.87170	506.18906	1667.25000	
2	0.005	-575.13348	2754.27563	1663.96362	-601.43561	2304.76416	1657.82007	-634.13391	1850.83789	1654.70020	-658.33197	1348.59106	1654.49023	-685.50897	901.89618	1658.59314	-711.80243	454.23663	1663.75146	-1115.52283	2807.00757	1664.26062	-1144.44910	2355.43921	1662.10681	-1176.24072	1905.40259	1659.44434	-1203.95020	1403.84741	1659.16016	-1227.28357	952.65778	1662.22485	-1245.85376	506.15100	1667.24512	
3	0.010	-575.14490	2754.25439	1663.98157	-601.43604	2304.75293	1657.83228	-634.18146	1850.82617	1654.73291	-658.37109	1348.56897	1654.54041	-685.52606	901.88953	1658.61963	-711.77533	454.20374	1663.74695	-1115.48035	2806.96069	1664.27344	-1144.41479	2355.41064	1662.03564	-1176.14929	1905.37256	1659.29736	-1203.95862	1403.83496	1659.04968	-1227.26233	952.62518	1662.16382	-1245.84802	506.14508	1667.24414	
4	0.015	-575.14301	2754.27002	1663.99048	-601.44482	2304.73901	1657.89270	-634.23083	1850.84692	1654.77283	-658.39746	1348.57642	1654.60449	-685.56592	901.84888	1658.65576	-711.76733	454.21567	1663.76001	-1115.39343	2806.94873	1664.26343	-1144.33667	2355.37061	1661.99255	-1176.07263	1905.35205	1659.20752	-1203.89526	1403.81360	1659.00195	-1227.25635	952.60980	1662.12842	-1245.85754	506.08575	1667.23633	
5	0.020	-575.16364	2754.30322	1663.97144	-601.46747	2304.73022	1657.93640	-634.27979	1850.86011	1654.80139	-658.44147	1348.57544	1654.68811	-685.60071	901.85443	1658.70972	-711.76184	454.21017	1663.75391	-1115.34155	2806.90259	1664.26953	-1144.33459	2355.34644	1661.93933	-1175.98767	1905.35803	1659.12817	-1203.85669	1403.81030	1658.95300	-1227.20740	952.58386	1662.10583	-1245.83752	506.04822	1667.24182	
6	0.025	-575.15442	2754.29199	1663.97742	-601.52753	2304.73657	1657.99792	-634.32947	1850.85107	1654.89417	-658.46643	1348.60925	1654.77600	-685.64948	901.83368	1658.77332	-711.79547	454.20889	1663.75269	-1115.35144	2806.88770	1664.26331	-1144.30713	2355.31641	1661.91516	-1175.93298	1905.28430	1659.08618	-1203.82690	1403.77405	1658.91809	-1227.17249	952.58081	1662.08228	-1245.42566	506.12186	1667.23352	
7	0.030	-575.16760	2754.29077	1663.99036	-601.54816	2304.74292	1658.06958	-634.37073	1850.89026	1654.98694	-658.49036	1348.56970	1654.88867	-685.66229	901.84802	1658.80737	-711.83472	454.20609	1663.76685	-1115.42236	2806.86377	1664.26624	-1144.28552	2355.33521	1661.88611	-1175.92651	1905.26868	1659.05054	-1203.79492	1403.77124	1658.88171	-1227.17883	952.55988	1662.08228	-1245.81885	506.04062	1667.23438	
8	0.035	-575.16119	2754.31104	1663.98706	-601.59540	2304.77368	1658.12793	-634.41418	1850.92114	1655.09119	-658.51575	1348.59473	1654.98560	-685.71771	901.85968	1658.87915	-711.89838	454.22476	1663.76440	-1115.40234	2806.87427	1664.26465	-1144.29016	2355.32324	1661.87244	-1175.89709	1905.29456	1659.01294	-1203.78479	1403.81433	1658.87769	-1227.17798	952.55829	1662.06409	-1245.42847	506.08084	1667.20850	
9	0.040	-575.17944	2754.32080	1663.95398	-601.61279	2304.79614	1658.20959	-634.43799	1850.90356	1655.20850	-658.53809	1348.56763	1655.08691	-685.74628	901.87305	1658.93823	-711.96008	454.18924	1663.77075	-1115.43677	2806.84717	1664.25134	-1144.32605	2355.31543	1661.87769	-1175.95032	1905.27295	1659.00037	-1203.83228	1403.77478	1658.85767	-1227.23877	952.54755	1662.04736	-1245.80786	506.03085	1667.22009	
10	0.045	-575.18958	2754.34668	1663.97717	-601.63751	2304.77612	1658.28430	-634.40735	1850.89539	1655.30457	-658.54517	1348.57458	1655.17542	-685.78430	901.84912	1658.98511	-711.97388	454.17813	1663.75000	-1115.41724	2806.84717	1664.24646	-1144.41528	2355.30078	1661.83667	-1176.03979	1905.27600	1658.98035	-1203.89209	1403.78772	1658.83215	-1227.27515	952.53320	1662.02246	-1245.81042	506.04208	1667.22388	
11	0.050	-575.18457	2754.34204	1663.97559	-601.63965	2304.82251	1658.35986	-634.41132	1850.89954	1655.40320	-658.52527	1348.57141	1655.27954	-685.78564	901.82800	1659.03442	-711.99139	454.22168	1663.75342	-1115.49524	2806.88135	1664.26868	-1144.47949	2355.30957	1661.83923	-1176.14087	1905.31677	1658.98718	-1203.96790	1403.79077	1658.82788	-1227.35620	952.52582	1662.01160	-1245.90857	506.02090	1667.27576	
12	0.055	-575.17841	2754.33081	1663.97327	-601.65991	2304.75366	1658.41248	-634.41180	1850.90771	1655.47192	-658.51184	1348.56458	1655.34033	-685.79559	901.81256	1659.07190	-711.97278	454.16586	1663.76721	-1115.48486	2806.88037	1664.25488	-1144.55151	2355.34351	1661.83105	-1176.27637	1905.32800	1658.97778	-1204.07605	1403.77368	1658.81567	-1227.43994	952.55499	1662.02612	-1245.81067	506.04175	1667.23730	
13	0.060	-575.17065	2754.32178	1663.96387	-601.60931	2304.78662	1658.44116	-634.35632	1850.88586	1655.54358	-658.48248	1348.56213	1655.37842	-685.76971	901.80719	1659.06885	-711.93524	454.19589	1663.75635	-1115.51001	2806.89331	1664.27600	-1144.61145	2355.32227	1661.85291	-1176.44189	1905.35083	1658.99890	-1204.14160	1403.79431	1658.82629	-1227.54199	952.57721	1662.04028	-1245.87415	506.10611	1667.22949	
14	0.065	-575.15137	2754.30029	1663.98157	-601.60944	2304.77100	1658.43701	-634.30151	1850.86816	1655.54822	-658.43378	1348.56177	1655.40979	-685.73816	901.80048	1659.09729	-711.88330	454.16464	1663.76965	-1115.61365	2806.90503	1664.26575	-1144.67554	2355.31152	1661.87866	-1176.56787	1905.37048	1659.03760	-1204.21155	1403.81299	1658.86023	-1227.63416	952.57471	1662.05090	-1245.89832	506.07468	1667.24988	
15	0.070	-575.14709	2754.31201	1663.97791	-601.57611	2304.76465	1658.46863	-634.27734	1850.84216	1655.57556	-658.38922	1348.57495	1655.44519	-685.70264	901.80634	1659.09705	-711.82813	454.16547	1663.78076	-1115.63391	2806.92407	1664.26904	-1144.73120	2355.36987	1661.91309	-1176.69971	1905.40100	1659.10815	-1204.26392	1403.83057	1658.89197	-1227.65735	952.59619	1662.09119	-1245.95850	506.12946	1667.26526	
16	0.075	-575.14490	2754.29688	1663.95874	-601.55511	2304.78589	1658.46802	-634.19507	1850.85498	1655.59387	-658.34998	1348.58301	1655.45728	-685.65491	901.81720	1659.10388	-711.78491	454.16046	1663.76404	-1115.68323	2806.95239	1664.24866	-1144.78943	2355.36963	1661.94971	-1176.78809	1905.44983	1659.19580	-1204.31958	1403.83154	1658.96240	-1227.70630	952.62091	1662.11621	-1245.98914	506.16153	1667.26758	
17	0.080	-575.13348	2754.32690	1663.97461	-601.51794	2304.81445	1658.47656	-634.12262	1850.85828	1655.57678	-658.27045	1348.61450	1655.44226	-685.62061	901.82318	1659.10315	-711.72162	454.20227	1663.77112	-1115.73413	2807.01709	1664.25903	-1144.78625	2355.42407	1662.01099	-1176.81079	1905.48242	1659.26758	-1204.33142	1403.86707	1659.04529	-1227.71899	952.62872	1662.15991	-1246.05139	506.21802	1667.28528	
18	0.085	-575.14880	2754.36084	1663.97693	-601.49408	2304.80371	1658.46643	-634.12738	1850.90503	1655.54590	-658.21417	1348.61316	1655.44666	-685.57312	901.86316	1659.09424	-711.70453	454.22266	1663.77637	-1115.69531	2807.02563	1664.26123	-1144.76733	2355.45142	1662.05872	-1176.81226	1905.48682	1659.34900	-1204.29785	1403.91125	1659.09351	-1227.31470	952.74127	1662.22644	-1246.04724	506.24518	1667.27905	
19	0.090	-575.14410	2754.35840	1663.96655	-601.46478	2304.84326	1658.43774	-634.07300	1850.89526	1655.54199	-658.18005	1348.66699	1655.42566	-685.52521	901.90527	1659.07727	-711.71875	454.25797	1663.77173	-1115.74854	2807.07227	1664.27307	-1144.73962	2355.48950	1662.09363	-1176.76758	1905.52576	1659.40552	-1204.28125	1403.93628	1659.16565	-1227.22949	952.77948	1662.27454	-1246.04980	506.26611	1667.29419	
20	0.095	-575.16656	2754.43970	1663.97131	-601.42456	2304.86792	1658.42249	-634.03284	1850.92468	1655.46692	-658.13562	1348.68127	1655.37378	-685.48041	901.94122	1659.05908	-711.68323	454.27225	1663.78088	-1115.72742	2807.09692	1664.27637	-1144.68872	2355.51953	1662.10144	-1176.71204	1905.52466	1659.41748	-1204.19897	1403.94995	1659.18738	-1227.09998	952.80420	1662.27515	-1246.02100	506.28772	1667.28906	
21	0.100	-575.15723	2754.44360	1663.99670	-601.37451	2304.89819	1658.32825	-633.97900	1850.99353	1655.41357	-658.10004	1348.68909	1655.32117	-685.45221	901.97693	1659.01428	-711.67133	454.31656	1663.78052	-1115.61963	2807.12939	1664.26331	-1144.58960	2355.56201	1662.08301	-1176.56775	1905.55212	1659.39844	-1204.13611	1403.95313	1659.13574	-1227.01465	952.81329	1662.28967	-1245.97681	506.31689	1667.28455	
22	0.105	-575.14801	2754.45435	1663.98779	-601.34308	2304.89795	1658.26880	-634.06573	1851.04236	1655.26648	-658.06299	1348.70679	1655.20996	-685.38147	901.99341	1658.96777	-711.67365	454.32288	1663.76672	-1115.55334	2807.12158	1664.25415	-1144.47754	2355.58350	1662.04419	-1176.38489	1905.57825	1659.29919	-1204.04565	1403.98291	1659.08252	-1226.90051	952.81250	1662.24573	-1245.92261	506.33716	1667.27087	
23	0.110	-575.14587	2754.45874	1663.97717	-601.31189	2304.89819	1658.19519	-634.02820	1851.05518	1655.17065	-658.05396	1348.69275	1655.12756	-685.32874	902.02325	1658.91479	-711.67780	454.35352	1663.77649	-1115.47754	2807.14941	1664.24622	-1144.38489	2355.57495	1661.98792	-1176.20618	1905.58716	1659.16382	-1203.97034	1403.99011	1659.00684	-1226.79944	952.83447	1662.19800	-1245.87549	506.33096	1667.24854	
24	0.115	-575.12610	2754.45361	1663.95862	-601.26361	2304.92261	1658.11609	-633.86914	1851.01819	1655.03223	-658.03741	1348.69507	1654.98047	-685.29785	902.02887	1658.85339	-711.67480	454.35385	1663.77393	-1115.39368	2807.11353	1664.25610	-1144.26294	2355.58325	1661.90417	-1176.05554	1905.57776	1659.03345	-1203.88916	1403.95056	1658.89612	-1226.76111	952.81787	1662.14783	-1245.78333	506.34070	1667.24182	
